<svg width="150" height="150" viewBox="0 0 150 150" fill="none" xmlns="http://www.w3.org/2000/svg">
<mask id="mask0_25_72" style="mask-type:alpha" maskUnits="userSpaceOnUse" x="0" y="0" width="150" height="150">
<rect width="150" height="150" fill="#0F0F0F"/>
</mask>
<g mask="url(#mask0_25_72)">
<path d="M98.45 103.834L103.737 98.5453L78.8937 73.5438V42.2594H71.8031V76.4547L98.45 103.834ZM75.0109 134.375C66.863 134.375 59.1859 132.817 51.9797 129.7C44.7734 126.583 38.4719 122.328 33.075 116.933C27.6781 111.538 23.4203 105.239 20.3016 98.0359C17.1839 90.8339 15.625 83.1589 15.625 75.0109C15.625 66.863 17.1833 59.1859 20.3 51.9797C23.4167 44.7734 27.6724 38.4719 33.0672 33.075C38.462 27.6781 44.7609 23.4203 51.9641 20.3016C59.1661 17.1839 66.8411 15.625 74.9891 15.625C83.137 15.625 90.8141 17.1833 98.0203 20.3C105.227 23.4167 111.528 27.6724 116.925 33.0672C122.322 38.462 126.58 44.7609 129.698 51.9641C132.816 59.1661 134.375 66.8411 134.375 74.9891C134.375 83.137 132.817 90.8141 129.7 98.0203C126.583 105.227 122.328 111.528 116.933 116.925C111.538 122.322 105.239 126.58 98.0359 129.698C90.8339 132.816 83.1589 134.375 75.0109 134.375ZM75 127.283C89.3833 127.283 101.693 122.165 111.93 111.93C122.165 101.693 127.283 89.3833 127.283 75C127.283 60.6167 122.165 48.3068 111.93 38.0703C101.693 27.8349 89.3833 22.7172 75 22.7172C60.6167 22.7172 48.3068 27.8349 38.0703 38.0703C27.8349 48.3068 22.7172 60.6167 22.7172 75C22.7172 89.3833 27.8349 101.693 38.0703 111.93C48.3068 122.165 60.6167 127.283 75 127.283Z" fill="#0F0F0F"/>
</g>
</svg>
